<svg id="visual" viewBox="0 0 1200 300" width="1200" height="300" xmlns="http://www.w3.org/2000/svg" xmlns:xlink="http://www.w3.org/1999/xlink" version="1.1"><rect x="0" y="0" width="1200" height="300" fill="#0066FF"></rect><path d="M0 130L16.7 137.3C33.3 144.7 66.7 159.3 100 164.3C133.3 169.3 166.7 164.7 200 154.8C233.3 145 266.7 130 300 137C333.3 144 366.7 173 400 172.8C433.3 172.7 466.7 143.3 500 130C533.3 116.7 566.7 119.3 600 122.2C633.3 125 666.7 128 700 141.8C733.3 155.7 766.7 180.3 800 186.2C833.3 192 866.7 179 900 169.8C933.3 160.7 966.7 155.3 1000 143.3C1033.3 131.3 1066.7 112.7 1100 107.7C1133.3 102.7 1166.7 111.3 1183.3 115.7L1200 120L1200 301L1183.3 301C1166.7 301 1133.3 301 1100 301C1066.7 301 1033.3 301 1000 301C966.7 301 933.3 301 900 301C866.7 301 833.3 301 800 301C766.7 301 733.3 301 700 301C666.7 301 633.3 301 600 301C566.7 301 533.3 301 500 301C466.7 301 433.3 301 400 301C366.7 301 333.3 301 300 301C266.7 301 233.3 301 200 301C166.7 301 133.3 301 100 301C66.7 301 33.3 301 16.7 301L0 301Z" fill="#dd3f31" stroke-linecap="round" stroke-linejoin="miter"></path></svg>
