<svg id="visual" viewBox="0 0 1200 300" width="1200" height="300" xmlns="http://www.w3.org/2000/svg" xmlns:xlink="http://www.w3.org/1999/xlink" version="1.1"><path d="M0 121L16.7 128.7C33.3 136.3 66.7 151.7 100 158.2C133.3 164.7 166.7 162.3 200 151C233.3 139.7 266.7 119.3 300 112C333.3 104.7 366.7 110.3 400 127.3C433.3 144.3 466.7 172.7 500 173.2C533.3 173.7 566.7 146.3 600 146.5C633.3 146.7 666.7 174.3 700 170C733.3 165.7 766.7 129.3 800 127.8C833.3 126.3 866.7 159.7 900 161.2C933.3 162.7 966.7 132.3 1000 128.2C1033.3 124 1066.7 146 1100 152.7C1133.3 159.3 1166.7 150.7 1183.3 146.3L1200 142L1200 301L1183.3 301C1166.7 301 1133.3 301 1100 301C1066.7 301 1033.3 301 1000 301C966.7 301 933.3 301 900 301C866.7 301 833.3 301 800 301C766.7 301 733.3 301 700 301C666.7 301 633.3 301 600 301C566.7 301 533.3 301 500 301C466.7 301 433.3 301 400 301C366.7 301 333.3 301 300 301C266.7 301 233.3 301 200 301C166.7 301 133.3 301 100 301C66.7 301 33.3 301 16.7 301L0 301Z" fill="#0066FF" stroke-linecap="round" stroke-linejoin="miter"></path></svg>
